<?xml version="1.0" encoding="utf-8"?>
<!-- Generator: Adobe Illustrator 16.0.0, SVG Export Plug-In . SVG Version: 6.00 Build 0)  -->
<!DOCTYPE svg PUBLIC "-//W3C//DTD SVG 1.1//EN" "http://www.w3.org/Graphics/SVG/1.1/DTD/svg11.dtd">
<svg version="1.1" id="Layer_1" xmlns="http://www.w3.org/2000/svg" xmlns:xlink="http://www.w3.org/1999/xlink" x="0px" y="0px"
	 width="208.791px" height="30.354px" viewBox="12.811 25.589 208.791 30.354"
	 enable-background="new 12.811 25.589 208.791 30.354" xml:space="preserve">
<g>
	<path fill="#020202" d="M205.842,45.998c-1.975-2.121-2.909-4.557-2.646-7.344c0.375-3.96,3.014-7.164,7.018-8.136
		c4.158-1.009,8.449,0.96,10.363,4.792c1.158,2.32,1.365,4.758,0.465,7.2c-1.285,3.478-3.815,5.491-7.481,6.077
		c-0.359,0.058-0.718,0.074-1.078,0.074c-56.004,0-112.009,0-168.014,0c-0.984,0-1.203-0.218-1.204-1.188
		c0-1.364,0.11-1.476,1.458-1.476c53.521,0,107.043,0,160.563,0C205.447,45.998,205.607,45.998,205.842,45.998z M206.477,46.248
		c-0.295,0-0.472,0-0.646,0c-53.729,0-107.456,0-161.183,0c-0.125,0-0.25,0-0.375,0c-0.057,0-0.111-0.004-0.166,0
		c-0.431,0.037-0.589,0.248-0.594,0.783c-0.01,1.133,0.072,1.329,0.578,1.377c0.124,0.01,0.25,0.002,0.375,0.002
		c56.03,0,112.062,0,168.091,0c0.319,0,0.635-0.018,0.952-0.067c3.582-0.573,6.05-2.53,7.302-5.942
		c0.846-2.311,0.657-4.605-0.377-6.816c-1.638-3.492-5.416-5.549-9.228-4.986c-3.643,0.538-6.113,2.579-7.334,6.055
		c-0.828,2.354-0.565,4.661,0.515,6.889C204.875,44.55,205.574,45.406,206.477,46.248z"/>
	<path fill="#020202" d="M121.002,39.044c0-0.994,0.008-1.864-0.006-2.734c-0.002-0.223,0.041-0.314,0.289-0.307
		c0.57,0.02,1.139,0.013,1.707,0.002c0.191-0.004,0.262,0.043,0.262,0.252c-0.006,2.607-0.006,5.215-0.002,7.822
		c0.002,0.197-0.051,0.264-0.252,0.26c-0.584-0.012-1.166-0.012-1.748,0c-0.201,0.004-0.258-0.059-0.254-0.258
		c0.012-0.609,0.004-1.221,0.004-1.83c0.002-0.139-0.002-0.268-0.098-0.389c-0.689-0.886-1.375-1.775-2.066-2.668
		c-0.131,0.108-0.065,0.241-0.065,0.352c-0.006,1.484-0.013,2.97,0.002,4.453c0.004,0.271-0.064,0.354-0.34,0.343
		c-0.539-0.023-1.08-0.013-1.623-0.005c-0.191,0.004-0.299-0.012-0.299-0.258c0.01-2.607,0.01-5.215,0.002-7.822
		c0-0.209,0.069-0.275,0.264-0.25c0.027,0.005,0.053,0,0.082,0.002c0.584,0.003,1.25-0.168,1.725,0.06
		c0.472,0.228,0.752,0.853,1.113,1.308C120.107,37.896,120.516,38.421,121.002,39.044z"/>
	<path fill="#020202" d="M154.227,39.101c0,1.689-0.013,3.252,0.01,4.814c0.004,0.345-0.076,0.451-0.426,0.428
		c-0.525-0.034-1.056-0.018-1.582-0.006c-0.203,0.006-0.254-0.063-0.252-0.258c0.004-2.608,0.004-5.215-0.002-7.824
		c0-0.207,0.069-0.274,0.262-0.248c0.027,0.004,0.057,0,0.084,0c0.582,0.004,1.248-0.168,1.723,0.061
		c0.472,0.227,0.752,0.854,1.113,1.307c0.41,0.521,0.818,1.047,1.305,1.668c0-0.662-0.01-1.219,0.004-1.775
		c0.011-0.411-0.18-0.958,0.074-1.191c0.224-0.203,0.765-0.072,1.164-0.063c0.326,0.007,0.76-0.15,0.951,0.068
		c0.158,0.186,0.053,0.606,0.053,0.922c0.004,2.316-0.004,4.634,0.008,6.949c0.004,0.307-0.061,0.406-0.381,0.39
		c-0.539-0.029-1.082-0.017-1.621-0.003c-0.2,0.005-0.26-0.057-0.256-0.256c0.012-0.61,0.004-1.221,0.006-1.832
		c0-0.139-0.002-0.267-0.1-0.389C155.674,40.978,154.99,40.089,154.227,39.101z"/>
	<path fill="#020202" d="M195.261,39.105c0,1.71-0.006,3.291,0.011,4.871c0.002,0.286-0.063,0.38-0.359,0.366
		c-0.541-0.026-1.082-0.017-1.623-0.003c-0.217,0.006-0.276-0.059-0.276-0.278c0.008-2.594,0.008-5.188,0-7.782
		c-0.003-0.224,0.065-0.303,0.278-0.271c0.027,0.005,0.058,0,0.084,0.002c0.582,0.004,1.246-0.163,1.726,0.063
		c0.459,0.217,0.729,0.84,1.078,1.285c0.416,0.53,0.831,1.061,1.319,1.686c0-0.951,0.012-1.789-0.006-2.627
		c-0.008-0.303,0.043-0.438,0.394-0.416c0.524,0.035,1.053,0.019,1.579,0.006c0.209-0.006,0.287,0.041,0.287,0.271
		c-0.01,2.595-0.01,5.188-0.002,7.782c0.002,0.213-0.047,0.289-0.272,0.283c-0.584-0.016-1.166-0.012-1.748-0.002
		c-0.183,0.004-0.256-0.051-0.232-0.233c0.01-0.067-0.008-0.14,0.004-0.208c0.229-1.357-0.213-2.475-1.172-3.438
		C195.953,40.083,195.662,39.621,195.261,39.105z"/>
	<path fill="#010101" d="M173.016,37.908c-0.912,0.07-1.789-0.066-2.654,0.102c-1.019,0.195-1.666,0.8-2.037,1.828
		c0.682,0,1.322-0.002,1.963,0.002c0.209,0.002,0.162-0.143,0.162-0.256c0.004-0.36,0.012-0.721-0.004-1.082
		c-0.01-0.207,0.065-0.252,0.26-0.25c0.582,0.012,1.164,0.014,1.746,0c0.203-0.004,0.252,0.061,0.252,0.258
		c-0.006,1.857-0.006,3.715,0,5.572c0,0.193-0.043,0.264-0.25,0.258c-0.582-0.014-1.164-0.018-1.746,0.002
		c-0.246,0.009-0.262-0.102-0.26-0.293c0.008-0.664-0.006-1.33,0.008-1.995c0.006-0.228-0.049-0.312-0.293-0.306
		c-0.596,0.019-1.19,0.021-1.787,0c-0.266-0.008-0.281,0.095-0.258,0.313c0.076,0.715,0.303,1.378,0.668,1.988
		c0.146,0.238,0.103,0.341-0.121,0.475c-0.438,0.262-0.86,0.553-1.285,0.842c-0.141,0.096-0.229,0.102-0.323-0.061
		c-1.199-1.991-1.623-4.085-0.75-6.307c0.829-2.108,2.524-2.934,4.686-2.985c0.498-0.013,1.111-0.169,1.463,0.062
		c0.351,0.229,0.307,0.896,0.439,1.37C172.934,37.589,172.971,37.736,173.016,37.908z"/>
	<path fill="#010101" d="M150.799,37.93c-0.711,0-1.391-0.022-2.065,0.005c-1.117,0.046-1.998,0.491-2.502,1.551
		c-0.142,0.295-0.097,0.374,0.231,0.357c0.484-0.023,0.972-0.023,1.455,0.001c0.269,0.014,0.33-0.078,0.313-0.326
		c-0.021-0.331,0.01-0.666-0.01-0.997c-0.017-0.23,0.075-0.273,0.282-0.27c0.566,0.013,1.138,0.016,1.703,0
		c0.226-0.008,0.273,0.068,0.271,0.279c-0.006,1.844-0.006,3.688,0.002,5.531c0,0.214-0.054,0.285-0.273,0.277
		c-0.555-0.016-1.108-0.018-1.664,0.002c-0.25,0.008-0.334-0.049-0.324-0.314c0.021-0.664-0.002-1.33,0.013-1.996
		c0.004-0.213-0.049-0.287-0.273-0.281c-0.596,0.017-1.19,0.016-1.787,0c-0.227-0.004-0.311,0.035-0.28,0.293
		c0.077,0.713,0.299,1.379,0.666,1.99c0.151,0.254,0.1,0.363-0.136,0.502c-0.428,0.256-0.836,0.543-1.25,0.817
		c-0.121,0.08-0.217,0.153-0.33-0.032c-1.221-2.016-1.643-4.135-0.733-6.381c0.797-1.975,2.383-2.818,4.434-2.916
		c0.512-0.023,1.025-0.002,1.537-0.02c0.174-0.006,0.238,0.059,0.277,0.216C150.494,36.781,150.645,37.337,150.799,37.93z"/>
	<path fill="#010101" d="M110.656,39.837c0.65,0,1.26-0.008,1.867,0.006c0.217,0.005,0.252-0.081,0.244-0.268
		c-0.013-0.346,0.006-0.693-0.007-1.039c-0.008-0.199,0.027-0.295,0.267-0.287c0.58,0.019,1.164,0.016,1.744,0
		c0.215-0.004,0.246,0.076,0.246,0.265c-0.006,1.856-0.006,3.715,0,5.571c0.002,0.203-0.06,0.257-0.256,0.252
		c-0.582-0.012-1.164-0.012-1.746,0c-0.201,0.005-0.259-0.055-0.257-0.254c0.013-0.68-0.006-1.359,0.013-2.039
		c0.004-0.235-0.064-0.303-0.301-0.297c-0.595,0.016-1.191,0.015-1.787,0c-0.218-0.006-0.277,0.047-0.257,0.273
		c0.072,0.745,0.322,1.428,0.693,2.066c0.104,0.18,0.113,0.272-0.078,0.391c-0.459,0.283-0.908,0.583-1.354,0.887
		c-0.146,0.102-0.23,0.086-0.324-0.068c-1.158-1.92-1.584-3.948-0.822-6.115c0.728-2.059,2.371-3.131,4.769-3.172
		c0.498-0.01,1.114-0.168,1.463,0.063c0.346,0.23,0.303,0.899,0.436,1.375c0.041,0.146,0.078,0.293,0.127,0.481
		c-0.698,0-1.375-0.021-2.049,0.004c-1.193,0.042-2.1,0.546-2.576,1.69C110.689,39.673,110.684,39.727,110.656,39.837z"/>
	<path fill="#010101" d="M77.381,37.931c-0.721,0-1.398-0.023-2.076,0.005c-1.154,0.05-2.052,0.524-2.524,1.638
		c-0.032,0.077-0.079,0.147-0.035,0.264c0.61,0,1.23-0.008,1.85,0.005c0.203,0.004,0.22-0.091,0.217-0.25
		c-0.009-0.36,0.008-0.722-0.006-1.081c-0.008-0.195,0.043-0.264,0.25-0.26c0.58,0.014,1.163,0.012,1.745,0
		c0.19-0.002,0.264,0.039,0.263,0.248c-0.008,1.857-0.011,3.715,0.001,5.572c0.001,0.233-0.083,0.271-0.286,0.268
		c-0.567-0.012-1.137-0.016-1.704,0.002c-0.229,0.007-0.274-0.076-0.27-0.283c0.011-0.665-0.004-1.331,0.008-1.996
		c0.004-0.215-0.023-0.322-0.282-0.314c-0.609,0.021-1.221,0.016-1.83,0.002c-0.211-0.004-0.248,0.06-0.229,0.26
		c0.065,0.744,0.313,1.43,0.687,2.068c0.118,0.199,0.11,0.295-0.093,0.418c-0.448,0.272-0.883,0.568-1.319,0.862
		c-0.133,0.089-0.224,0.126-0.328-0.047c-1.289-2.147-1.686-4.388-0.568-6.72c0.891-1.863,2.532-2.524,4.49-2.58
		c0.416-0.012,0.832,0.012,1.248-0.008c0.215-0.01,0.318,0.053,0.369,0.267C77.083,36.806,77.228,37.337,77.381,37.931z"/>
	<path fill="#020202" d="M69.24,40.205c0,1.248-0.009,2.496,0.005,3.744c0.004,0.289-0.034,0.42-0.371,0.396
		c-0.497-0.036-0.999-0.027-1.497-0.002c-0.298,0.015-0.401-0.051-0.394-0.377c0.023-1.04,0-2.081,0.015-3.12
		c0.004-0.265-0.056-0.358-0.337-0.347c-0.539,0.024-1.081,0.017-1.622,0.004c-0.21-0.006-0.291,0.048-0.286,0.275
		c0.028,1.094-0.052,2.191,0.08,3.282c0.023,0.203-0.009,0.326-0.192,0.438c-0.485,0.293-0.964,0.6-1.431,0.924
		c-0.237,0.168-0.314,0.078-0.4-0.145c-0.141-0.367-0.22-0.748-0.233-1.135c-0.099-2.62-0.026-5.24-0.053-7.861
		C62.52,36.06,62.59,36,62.805,36.005c0.568,0.014,1.138,0.014,1.705,0c0.211-0.006,0.256,0.066,0.25,0.261
		c-0.011,0.666,0.008,1.332-0.009,1.997c-0.005,0.242,0.038,0.346,0.313,0.334c0.553-0.023,1.108-0.02,1.664-0.001
		c0.229,0.007,0.271-0.077,0.268-0.285c-0.012-0.638,0.02-1.276-0.013-1.914c-0.019-0.349,0.112-0.409,0.417-0.396
		c0.484,0.023,0.972,0.024,1.457,0c0.297-0.016,0.397,0.047,0.392,0.375C69.226,37.652,69.24,38.929,69.24,40.205z"/>
	<path fill="#020202" d="M191.939,39.226c-0.015,1.521-0.414,2.925-1.363,4.137c-1.27,1.621-3.42,1.659-4.711,0.047
		c-1.244-1.553-1.658-3.359-1.332-5.309c0.199-1.182,1.004-1.842,2.145-2.094c1.003-0.221,2.009-0.223,3.013-0.008
		c1.395,0.299,2.178,1.222,2.248,2.646C191.949,38.837,191.939,39.033,191.939,39.226z M186.66,39.333
		c0.045,1.062,0.234,2.02,0.801,2.857c0.438,0.651,1.062,0.653,1.465,0.001c0.644-1.042,0.925-2.182,0.757-3.407
		c-0.084-0.607-0.354-0.889-0.947-0.99c-0.396-0.067-0.795-0.063-1.193,0.029c-0.518,0.119-0.768,0.461-0.846,0.955
		C186.666,38.982,186.67,39.192,186.66,39.333z"/>
	<path d="M57.143,39.089c-0.174,0.617-0.337,1.172-0.485,1.732c-0.055,0.209-0.204,0.184-0.356,0.184
		c-0.624,0-1.247,0.012-1.87-0.006c-0.25-0.006-0.356,0.054-0.327,0.319c0.039,0.354-0.147,0.813,0.074,1.039
		c0.203,0.208,0.658,0.056,1.003,0.058c0.827,0.008,1.656,0.002,2.534,0.002c-0.19,0.619-0.375,1.197-0.546,1.776
		c-0.044,0.152-0.148,0.14-0.257,0.14c-1.595,0-3.188-0.002-4.784,0.004c-0.211,0.002-0.25-0.073-0.25-0.266
		c0.005-2.605,0.006-5.213-0.001-7.818c0-0.211,0.079-0.25,0.268-0.248c1.511,0.006,3.021,0.007,4.533-0.002
		c0.206,0,0.287,0.066,0.333,0.269c0.106,0.472,0.229,0.94,0.371,1.403c0.069,0.225-0.005,0.254-0.202,0.253
		c-0.916-0.007-1.831,0.005-2.746-0.009c-0.245-0.004-0.333,0.048-0.333,0.316c-0.001,0.854-0.015,0.854,0.827,0.854
		C55.648,39.089,56.369,39.089,57.143,39.089z"/>
	<path fill="#010101" d="M132.936,40.248c0.604-0.275,1.094-0.584,1.477-1.037c0.238-0.281,0.375-0.603,0.207-0.957
		c-0.154-0.325-0.479-0.33-0.793-0.33c-1.15,0.004-2.299,0.002-3.484,0.002c0.146-0.586,0.285-1.145,0.429-1.701
		c0.03-0.121,0.063-0.225,0.239-0.219c1.273,0.031,2.556-0.098,3.822,0.057c1.695,0.206,2.482,1.548,1.943,3.176
		c-0.264,0.797-0.803,1.381-1.449,1.879c-0.639,0.493-1.344,0.875-2.094,1.168c-0.23,0.09-0.316,0.209-0.305,0.457
		c0.022,0.43-0.005,0.86,0.012,1.291c0.01,0.223-0.037,0.317-0.289,0.309c-0.553-0.02-1.109-0.018-1.664,0
		c-0.225,0.006-0.273-0.071-0.273-0.283c0.009-1.846,0.009-3.689,0-5.534c-0.002-0.228,0.072-0.276,0.283-0.271
		c0.555,0.014,1.109,0.014,1.664,0c0.215-0.006,0.285,0.053,0.281,0.275C132.924,39.078,132.936,39.628,132.936,40.248z"/>
	<path fill="#020202" d="M103.363,40.427c0.312-0.243,0.625-0.484,0.936-0.729c0.295-0.234,0.573-0.484,0.769-0.812
		c0.332-0.556,0.105-0.957-0.539-0.959c-1.289-0.005-2.577-0.001-3.909-0.001c0.157-0.596,0.311-1.164,0.456-1.732
		c0.03-0.115,0.064-0.191,0.215-0.188c1.467,0.041,2.942-0.107,4.402,0.074c1.779,0.223,2.524,1.877,1.569,3.402
		c-0.293,0.467-0.688,0.838-1.147,1.127c-0.225,0.143-0.209,0.25-0.096,0.451c0.594,1.053,1.243,2.064,2.069,2.953
		c0.164,0.176,0.16,0.264-0.035,0.402c-0.45,0.32-0.893,0.658-1.325,1c-0.168,0.133-0.263,0.119-0.4-0.045
		c-1.238-1.474-2.219-3.102-2.963-4.873C103.363,40.474,103.363,40.451,103.363,40.427z"/>
	<path fill="#020202" d="M46.427,40.426c0.323-0.251,0.647-0.501,0.968-0.755c0.285-0.225,0.549-0.471,0.735-0.784
		c0.332-0.556,0.106-0.957-0.54-0.959c-1.289-0.005-2.577-0.001-3.908-0.001c0.156-0.596,0.31-1.164,0.457-1.732
		c0.029-0.117,0.063-0.191,0.214-0.188c1.468,0.041,2.942-0.106,4.404,0.074c1.777,0.22,2.524,1.879,1.567,3.401
		c-0.292,0.466-0.687,0.839-1.147,1.127c-0.224,0.142-0.209,0.25-0.095,0.451c0.594,1.054,1.244,2.065,2.068,2.953
		c0.164,0.176,0.162,0.263-0.035,0.401c-0.452,0.322-0.891,0.658-1.326,1.002c-0.166,0.133-0.261,0.119-0.399-0.045
		c-1.238-1.474-2.22-3.101-2.964-4.873C46.429,40.474,46.429,40.451,46.427,40.426z"/>
	<path fill="#020202" d="M84.801,40.427c0.313-0.243,0.625-0.484,0.936-0.729c0.295-0.234,0.573-0.486,0.768-0.812
		c0.332-0.556,0.107-0.958-0.539-0.96c-1.289-0.006-2.576-0.001-3.908-0.001c0.156-0.597,0.309-1.164,0.457-1.732
		c0.029-0.116,0.063-0.192,0.214-0.188c1.467,0.043,2.941-0.106,4.402,0.074c1.779,0.222,2.525,1.879,1.569,3.402
		c-0.292,0.467-0.687,0.838-1.147,1.127c-0.225,0.141-0.208,0.25-0.095,0.452c0.593,1.052,1.244,2.063,2.069,2.952
		c0.164,0.176,0.16,0.263-0.036,0.402c-0.452,0.319-0.893,0.658-1.326,1.002c-0.167,0.131-0.261,0.119-0.398-0.047
		c-1.24-1.474-2.222-3.101-2.964-4.873C84.801,40.474,84.801,40.451,84.801,40.427z"/>
	<path fill="#020202" d="M129.477,37.925c-0.736,0-1.429-0.002-2.121,0.001c-0.162,0-0.349-0.031-0.438,0.155
		c-0.098,0.199,0.033,0.344,0.154,0.479c0.604,0.687,1.217,1.365,1.818,2.056c0.454,0.521,0.807,1.088,0.799,1.817
		c-0.013,0.972-0.625,1.687-1.59,1.819c-0.994,0.137-1.994,0.062-2.99,0.086c-0.164,0.003-0.221-0.074-0.256-0.205
		c-0.144-0.492-0.279-0.984-0.431-1.473c-0.065-0.223,0.027-0.25,0.222-0.248c0.692,0.01,1.387,0.004,2.08,0.004
		c0.166,0,0.348,0.017,0.438-0.166c0.101-0.196-0.021-0.35-0.143-0.482c-0.646-0.723-1.306-1.438-1.949-2.161
		c-0.592-0.664-0.84-1.426-0.578-2.303c0.211-0.708,0.713-1.103,1.432-1.214c0.951-0.148,1.91-0.061,2.865-0.084
		c0.119-0.002,0.195,0.011,0.23,0.16C129.158,36.744,129.314,37.315,129.477,37.925z"/>
	<path fill="#020202" d="M93.297,37.925c0.156-0.594,0.306-1.141,0.438-1.691c0.045-0.18,0.124-0.232,0.312-0.23
		c1.789,0.009,3.578,0.009,5.368,0c0.201,0,0.28,0.058,0.324,0.261c0.104,0.472,0.239,0.938,0.367,1.403
		c0.057,0.199,0.005,0.267-0.211,0.262c-0.541-0.014-1.082,0.018-1.622-0.012c-0.337-0.02-0.439,0.063-0.436,0.42
		c0.021,1.857-0.001,3.717,0.019,5.576c0.004,0.348-0.084,0.451-0.432,0.429c-0.497-0.031-0.999-0.024-1.497-0.001
		c-0.26,0.012-0.318-0.066-0.317-0.321c0.011-1.899-0.002-3.801,0.015-5.701c0.002-0.333-0.091-0.415-0.411-0.401
		C94.592,37.944,93.967,37.925,93.297,37.925z"/>
	<path fill="#020202" d="M159.473,37.925c0.153-0.59,0.307-1.149,0.444-1.711c0.041-0.163,0.115-0.211,0.283-0.209
		c1.803,0.006,3.605,0.002,5.408,0.005c0.117,0,0.235-0.036,0.279,0.155c0.133,0.576,0.291,1.148,0.446,1.76
		c-0.664,0-1.287,0.018-1.91-0.008c-0.313-0.012-0.416,0.063-0.411,0.399c0.018,1.873,0,3.746,0.018,5.618
		c0.002,0.329-0.084,0.426-0.41,0.407c-0.498-0.028-1-0.024-1.498,0c-0.274,0.013-0.34-0.074-0.338-0.343
		c0.012-1.9-0.002-3.801,0.014-5.701c0.005-0.319-0.084-0.393-0.391-0.381C160.773,37.943,160.135,37.925,159.473,37.925z"/>
	<path fill="#020202" d="M173.457,37.925c0.154-0.594,0.303-1.141,0.437-1.689c0.045-0.179,0.123-0.232,0.311-0.232
		c1.791,0.01,3.578,0.009,5.369,0.002c0.199-0.002,0.281,0.054,0.326,0.258c0.102,0.473,0.238,0.938,0.367,1.404
		c0.053,0.197,0.006,0.268-0.209,0.262c-0.558-0.014-1.113,0.021-1.664-0.014c-0.355-0.023-0.394,0.123-0.392,0.42
		c0.011,1.873-0.004,3.744,0.015,5.617c0.002,0.311-0.072,0.407-0.39,0.39c-0.51-0.029-1.024-0.023-1.537-0.001
		c-0.26,0.011-0.321-0.061-0.321-0.319c0.014-1.899-0.002-3.801,0.016-5.7c0.002-0.332-0.086-0.418-0.408-0.404
		C174.752,37.944,174.127,37.925,173.457,37.925z"/>
	<path d="M140.154,39.19c0,0.942,0.01,1.886-0.008,2.83c-0.004,0.251,0.053,0.33,0.315,0.323c0.763-0.02,1.525-0.002,2.287-0.01
		c0.201-0.002,0.297,0.039,0.203,0.252c-0.006,0.013-0.012,0.024-0.018,0.037c-0.175,0.563-0.281,1.147-0.517,1.692
		c-0.565,0.007-1.135,0.017-1.703,0.021c-0.846,0.002-1.69-0.006-2.537,0.004c-0.215,0.004-0.28-0.049-0.278-0.272
		c0.008-2.594,0.008-5.188,0.002-7.782c-0.002-0.209,0.045-0.287,0.271-0.281c0.554,0.018,1.109,0.021,1.662,0
		c0.252-0.008,0.33,0.052,0.324,0.316C140.143,37.275,140.154,38.232,140.154,39.19z"/>
	<path d="M183.299,40.214c0,1.261-0.006,2.521,0.009,3.783c0.002,0.265-0.06,0.355-0.339,0.345
		c-0.553-0.023-1.106-0.013-1.661-0.003c-0.193,0.003-0.291-0.02-0.289-0.262c0.01-2.604,0.01-5.207,0-7.813
		c-0.002-0.249,0.104-0.26,0.293-0.258c0.565,0.008,1.135,0.017,1.703-0.002c0.245-0.008,0.293,0.076,0.291,0.305
		C183.295,37.61,183.299,38.914,183.299,40.214z"/>
	<path d="M80.833,40.175c0,1.275-0.008,2.549,0.006,3.822c0.003,0.27-0.063,0.354-0.34,0.344c-0.553-0.022-1.107-0.014-1.662-0.004
		c-0.196,0.005-0.289-0.023-0.288-0.262c0.011-2.604,0.009-5.209,0.001-7.813c0-0.195,0.048-0.263,0.252-0.257
		c0.582,0.014,1.164,0.018,1.745-0.002c0.248-0.008,0.291,0.084,0.29,0.308C80.828,37.598,80.833,38.887,80.833,40.175z"/>
	<path fill="#040404" d="M84.801,40.427c0,0.023,0,0.046,0,0.07c-0.234,0.037-0.113,0.221-0.113,0.326
		c-0.012,1.041-0.019,2.082,0,3.121c0.004,0.293-0.042,0.42-0.376,0.4c-0.524-0.033-1.055-0.018-1.581-0.004
		c-0.208,0.005-0.285-0.041-0.283-0.27c0.01-1.846,0.008-3.689,0.003-5.535c-0.001-0.199,0.03-0.293,0.266-0.285
		c0.555,0.02,1.109,0.017,1.665,0c0.23-0.006,0.314,0.055,0.307,0.297c-0.019,0.513-0.013,1.027,0,1.539
		C84.689,40.203,84.588,40.375,84.801,40.427z"/>
	<path fill="#040404" d="M46.427,40.426c0.002,0.024,0.002,0.047,0,0.071c-0.233,0.037-0.111,0.221-0.113,0.328
		c-0.012,1.039-0.017,2.08,0,3.119c0.005,0.293-0.043,0.42-0.376,0.399c-0.539-0.033-1.082-0.017-1.623-0.005
		c-0.175,0.003-0.24-0.041-0.239-0.229c0.006-1.871,0.006-3.744-0.001-5.615c-0.001-0.219,0.083-0.246,0.267-0.242
		c0.541,0.01,1.083,0.018,1.623-0.002c0.267-0.01,0.363,0.056,0.351,0.338c-0.023,0.498-0.015,1-0.001,1.498
		C46.315,40.201,46.216,40.373,46.427,40.426z"/>
	<path fill="#040404" d="M103.363,40.427c0,0.023,0,0.047,0,0.07c-0.236,0.037-0.113,0.221-0.114,0.328
		c-0.011,1.039-0.018,2.08,0,3.119c0.005,0.293-0.042,0.42-0.376,0.4c-0.539-0.033-1.082-0.016-1.622-0.006
		c-0.175,0.004-0.241-0.039-0.238-0.227c0.005-1.873,0.006-3.746-0.003-5.617c-0.002-0.219,0.082-0.246,0.269-0.242
		c0.54,0.01,1.082,0.018,1.623-0.002c0.266-0.01,0.362,0.058,0.349,0.338c-0.021,0.5-0.013,1-0.001,1.498
		C103.25,40.203,103.15,40.375,103.363,40.427z"/>
	<path fill="#090909" d="M185.932,53.592c0.35,0.147,0.723,0.335,1.155,0.312c0.226-0.012,0.42-0.06,0.479-0.309
		c0.059-0.253,0.07-0.514-0.191-0.666c-0.227-0.131-0.471-0.229-0.711-0.336c-0.635-0.283-0.904-0.686-0.819-1.241
		c0.073-0.479,0.575-0.892,1.184-0.935c0.231-0.018,0.469,0.043,0.703,0.033c0.344-0.012,0.377,0.144,0.295,0.428
		c-0.043,0.154-0.078,0.203-0.248,0.152c-0.264-0.082-0.537-0.133-0.818-0.121c-0.188,0.008-0.377,0.008-0.432,0.233
		c-0.057,0.226-0.057,0.456,0.178,0.588c0.215,0.122,0.443,0.222,0.672,0.321c0.658,0.29,0.953,0.701,0.888,1.248
		c-0.064,0.52-0.504,0.936-1.129,1.07c-0.263,0.055-0.521,0.028-0.783-0.018c-0.312-0.055-0.58-0.279-0.955,0.006
		c-0.295,0.225-0.816-0.009-1.053-0.348c-0.189-0.27-0.324-0.578-0.505-0.855c-0.102-0.154-0.094-0.49-0.381-0.393
		c-0.215,0.074-0.065,0.339-0.086,0.518c-0.024,0.204-0.006,0.416-0.006,0.623c-0.002,0.395-0.236,0.549-0.623,0.42
		c-0.135-0.043-0.113-0.138-0.113-0.229c-0.002-1.137,0.002-2.273-0.004-3.411c0-0.149,0.041-0.233,0.203-0.241
		c0.443-0.021,0.885-0.072,1.328,0.012c0.41,0.078,0.758,0.248,0.85,0.681c0.103,0.478,0.078,0.978-0.372,1.274
		c-0.283,0.188-0.24,0.328-0.099,0.545c0.152,0.231,0.285,0.477,0.445,0.701c0.145,0.205,0.32,0.408,0.59,0.418
		C185.906,54.085,185.707,53.697,185.932,53.592z M183.365,51.585c0,0.139,0.02,0.279-0.002,0.414
		c-0.053,0.348,0.145,0.357,0.391,0.306c0.244-0.054,0.457-0.177,0.49-0.44c0.039-0.311,0.115-0.646-0.162-0.898
		c-0.178-0.164-0.418-0.184-0.627-0.117c-0.18,0.059-0.063,0.266-0.084,0.404C183.354,51.361,183.365,51.474,183.365,51.585z"/>
	<path fill="#090909" d="M151.742,52.365c0-0.539,0.002-1.08-0.002-1.619c-0.002-0.148-0.004-0.26,0.203-0.273
		c0.594-0.042,1.184-0.114,1.776,0.008c0.718,0.148,1.175,0.553,1.285,1.282c0.222,1.421-0.317,2.557-2.035,2.563
		c-1.229,0.004-1.229,0.01-1.229-1.213C151.742,52.863,151.742,52.615,151.742,52.365z M152.484,52.365
		c0,0.414-0.004,0.828,0.004,1.242c0,0.1-0.047,0.217,0.098,0.283c0.563,0.256,1.42-0.139,1.578-0.74
		c0.094-0.363,0.104-0.736,0.072-1.109c-0.078-0.901-0.682-1.358-1.566-1.215c-0.18,0.029-0.186,0.121-0.186,0.254
		C152.486,51.507,152.484,51.935,152.484,52.365z"/>
	<path fill="#090909" d="M147.231,52.626c0.354,0.515,0.496,1.192,1.176,1.438c0.086,0.031,0.088,0.091,0.086,0.161
		c-0.004,0.111-0.092,0.123-0.17,0.148c-0.373,0.127-0.854-0.025-1.109-0.367c-0.244-0.321-0.409-0.688-0.59-1.047
		c-0.051-0.104-0.084-0.242-0.258-0.217c-0.209,0.029-0.111,0.19-0.117,0.291c-0.014,0.276-0.039,0.56,0.002,0.83
		c0.066,0.442-0.146,0.502-0.51,0.465c-0.174-0.018-0.238-0.058-0.238-0.24c0.008-1.135,0.006-2.271,0.002-3.407
		c-0.002-0.151,0.043-0.231,0.205-0.239c0.443-0.021,0.881-0.072,1.324,0.012c0.41,0.08,0.76,0.25,0.852,0.681
		c0.104,0.493,0.048,0.971-0.397,1.313C147.412,52.507,147.328,52.559,147.231,52.626z M146.242,51.569
		c0,0.138,0.018,0.28-0.004,0.415c-0.062,0.377,0.158,0.375,0.416,0.314c0.248-0.059,0.447-0.193,0.471-0.461
		c0.031-0.309,0.109-0.646-0.186-0.889c-0.174-0.145-0.4-0.166-0.595-0.104c-0.204,0.065-0.071,0.284-0.102,0.435
		C146.229,51.373,146.242,51.472,146.242,51.569z"/>
	<path fill="#090909" d="M166,53.082c0-0.818-0.008-1.549,0.006-2.279c0.002-0.143-0.131-0.381,0.197-0.393
		c0.32-0.011,0.225,0.215,0.225,0.369c0.007,1.066,0.007,2.133,0,3.199c0,0.111,0.078,0.271-0.075,0.331
		c-0.154,0.062-0.281-0.013-0.4-0.138c-0.695-0.732-1.402-1.457-2.1-2.188c-0.104-0.107-0.185-0.236-0.275-0.357
		c-0.029,0.021-0.057,0.041-0.084,0.061c0,0.764,0.004,1.527-0.004,2.292c-0.002,0.138,0.102,0.343-0.197,0.351
		c-0.319,0.008-0.227-0.211-0.227-0.367c-0.006-1.066-0.006-2.133,0.002-3.199c0-0.117-0.103-0.292,0.104-0.35
		c0.168-0.049,0.277,0.056,0.39,0.172c0.739,0.769,1.483,1.531,2.229,2.297C165.832,52.93,165.881,52.973,166,53.082z"/>
	<path fill="#090909" d="M174.193,52.382c0.002-1.495,0.938-2.238,2.396-1.898c0.863,0.202,1.343,0.995,1.271,2.107
		c-0.092,1.416-1.287,2.184-2.623,1.686C174.539,54.016,174.189,53.384,174.193,52.382z M174.959,52.171
		c0.006,0.525,0.025,0.931,0.195,1.303c0.176,0.385,0.494,0.538,0.912,0.514c0.336-0.021,0.738-0.012,0.848-0.382
		c0.221-0.737,0.273-1.504-0.035-2.239c-0.194-0.457-0.606-0.617-1.188-0.524c-0.478,0.075-0.601,0.216-0.678,0.79
		C174.981,51.85,174.969,52.072,174.959,52.171z"/>
	<path fill="#040404" d="M181.043,51.992c0-0.416,0.023-0.834-0.008-1.248c-0.025-0.332,0.135-0.347,0.389-0.34
		c0.232,0.004,0.379,0,0.367,0.316c-0.028,0.748-0.004,1.498-0.012,2.246c-0.01,0.666-0.396,1.168-1.031,1.347
		c-0.348,0.099-0.703,0.127-1.067,0.052c-0.675-0.139-1.015-0.457-1.052-1.144c-0.043-0.871-0.02-1.747-0.02-2.62
		c0-0.369,0.283-0.152,0.434-0.184c0.146-0.031,0.33-0.075,0.324,0.213c-0.018,0.816-0.01,1.636-0.004,2.453
		c0.004,0.843,0.629,1.197,1.381,0.793c0.189-0.104,0.279-0.256,0.277-0.473c-0.002-0.471,0-0.941,0-1.414
		C181.027,51.992,181.035,51.992,181.043,51.992z"/>
	<path fill="#020202" d="M59.882,42.003c-0.47,0-0.94-0.01-1.413,0.006c-0.224,0.008-0.283-0.072-0.274-0.285
		c0.015-0.374,0.011-0.748,0.001-1.122c-0.006-0.185,0.032-0.272,0.247-0.271c0.94,0.012,1.884,0.013,2.826,0
		c0.213-0.002,0.255,0.074,0.247,0.265c-0.02,0.456,0.147,1.04-0.076,1.33c-0.206,0.267-0.828,0.056-1.266,0.077
		C60.078,42.007,59.98,42.003,59.882,42.003z"/>
	<path fill="#090909" d="M188.865,52.371c0-0.567,0.006-1.137-0.004-1.705c-0.004-0.194,0.051-0.267,0.254-0.262
		c0.555,0.012,1.109,0.002,1.662,0.004c0.121,0,0.26-0.037,0.229,0.176c-0.02,0.16-0.055,0.258-0.246,0.248
		c-0.233-0.014-0.473,0.017-0.704-0.004c-0.312-0.025-0.474,0.019-0.457,0.406c0.03,0.834,0.006,0.836,0.467,0.844
		c0.207,0.004,0.416,0.008,0.623,0.006c0.108,0,0.194,0.017,0.184,0.158c-0.012,0.112-0.014,0.221-0.176,0.221
		c-0.277,0.002-0.555,0.025-0.83,0.021c-0.189-0.003-0.254,0.052-0.264,0.257c-0.052,1.148-0.06,1.147,1.078,1.159
		c0.082,0.001,0.166,0.009,0.248,0.001c0.147-0.012,0.188,0.055,0.18,0.195c-0.012,0.134-0.01,0.236-0.197,0.232
		c-0.609-0.011-1.219-0.011-1.828,0c-0.201,0.002-0.223-0.092-0.221-0.254C188.869,53.505,188.865,52.938,188.865,52.371z"/>
	<path fill="#090909" d="M167.225,52.376c0-0.553,0.008-1.107-0.007-1.662c-0.006-0.221,0.037-0.321,0.291-0.313
		c0.539,0.02,1.08,0.004,1.621,0.008c0.109,0,0.267-0.055,0.236,0.168c-0.02,0.152-0.043,0.262-0.24,0.254
		c-0.305-0.012-0.608-0.002-0.914,0.002c-0.104,0.002-0.239-0.025-0.241,0.145c-0.005,0.318,0,0.637-0.003,0.956
		c-0.002,0.146,0.103,0.138,0.199,0.14c0.25,0.004,0.5,0,0.748,0.016c0.127,0.009,0.33-0.092,0.314,0.188
		c-0.015,0.25-0.197,0.18-0.334,0.189c-0.207,0.014-0.416,0.033-0.623,0.016c-0.267-0.021-0.312,0.094-0.312,0.336
		c-0.004,1.073-0.014,1.073,1.068,1.083c0.068,0.001,0.139,0.003,0.209,0.001c0.129-0.003,0.242-0.011,0.229,0.188
		c-0.012,0.166-0.043,0.244-0.231,0.24c-0.582-0.012-1.164-0.015-1.746,0.002c-0.23,0.004-0.275-0.084-0.271-0.291
		C167.232,53.486,167.225,52.932,167.225,52.376z"/>
	<path fill="#090909" d="M155.82,52.349c-0.002-0.555,0.008-1.107-0.006-1.662c-0.004-0.216,0.057-0.289,0.278-0.283
		c0.539,0.014,1.078,0,1.619,0.008c0.103,0,0.269-0.076,0.25,0.153c-0.012,0.179-0.059,0.278-0.268,0.269
		c-0.289-0.016-0.582,0.008-0.873-0.004c-0.195-0.008-0.254,0.061-0.264,0.26c-0.05,0.976-0.056,0.97,0.897,1.003
		c0.127,0.004,0.365-0.136,0.367,0.17c0.002,0.28-0.215,0.196-0.359,0.202c-0.901,0.045-0.881,0.043-0.912,0.963
		c-0.012,0.391,0.109,0.509,0.482,0.472c0.26-0.026,0.525,0.005,0.787,0c0.16-0.003,0.254,0.009,0.244,0.218
		c-0.01,0.203-0.109,0.211-0.265,0.209c-0.567-0.004-1.135-0.016-1.702,0.004c-0.261,0.008-0.287-0.107-0.283-0.319
		C155.828,53.457,155.82,52.904,155.82,52.349z"/>
	<path fill="#090909" d="M148.828,52.346c0-0.556,0.01-1.108-0.006-1.663c-0.004-0.221,0.063-0.285,0.281-0.279
		c0.541,0.014,1.082,0,1.621,0.006c0.104,0.002,0.266-0.07,0.248,0.158c-0.015,0.184-0.068,0.274-0.273,0.264
		c-0.289-0.015-0.582,0.01-0.873-0.002c-0.201-0.01-0.25,0.067-0.26,0.263c-0.045,0.972-0.053,0.967,0.901,0.999
		c0.13,0.004,0.367-0.133,0.363,0.175c-0.002,0.28-0.221,0.19-0.365,0.198c-0.895,0.045-0.864,0.044-0.905,0.925
		c-0.021,0.44,0.125,0.556,0.526,0.511c0.246-0.027,0.498-0.001,0.746,0.002c0.121,0.002,0.256-0.033,0.238,0.178
		c-0.012,0.153-0.021,0.254-0.223,0.25c-0.597-0.013-1.191-0.014-1.787,0c-0.226,0.004-0.24-0.106-0.236-0.279
		C148.832,53.481,148.828,52.914,148.828,52.346z"/>
	<path fill="#040404" d="M172.518,52.332c0.295-0.594,0.567-1.104,0.801-1.631c0.119-0.269,0.271-0.355,0.574-0.254
		c-0.222,0.445-0.418,0.9-0.67,1.322c-0.41,0.688-0.632,1.408-0.513,2.207c0.056,0.369-0.155,0.339-0.408,0.355
		c-0.295,0.02-0.395-0.072-0.354-0.363c0.107-0.813-0.102-1.551-0.525-2.248c-0.243-0.398-0.426-0.833-0.637-1.256
		c0.775-0.148,0.773-0.148,1.092,0.523C172.076,51.412,172.279,51.835,172.518,52.332z"/>
	<path fill="#090909" d="M194.443,52.373c0-0.554,0.01-1.107-0.006-1.66c-0.006-0.225,0.043-0.318,0.293-0.311
		c0.553,0.018,1.106,0.008,1.66,0.004c0.141,0,0.235,0.004,0.217,0.194c-0.017,0.153-0.06,0.215-0.224,0.211
		c-0.305-0.007-0.608,0.026-0.911,0.009c-0.248-0.014-0.308,0.086-0.289,0.311c0.028,0.354-0.144,0.809,0.065,1.041
		c0.195,0.217,0.654,0.054,0.994,0.08c0.127,0.01,0.287-0.053,0.281,0.186c-0.008,0.219-0.15,0.189-0.285,0.193
		c-0.262,0.009-0.527,0.029-0.787,0.019c-0.227-0.009-0.279,0.083-0.27,0.291c0.014,0.358-0.023,0.722,0.012,1.078
		c0.031,0.328-0.146,0.319-0.371,0.308c-0.199-0.009-0.451,0.062-0.383-0.293c0.002-0.013,0.002-0.027,0.002-0.041
		C194.443,53.453,194.443,52.912,194.443,52.373z"/>
	<path fill="#090909" d="M158.648,52.342c0-0.554,0.012-1.107-0.004-1.66c-0.006-0.222,0.065-0.285,0.28-0.278
		c0.539,0.014,1.08,0.002,1.619,0.006c0.117,0.002,0.279-0.072,0.273,0.18c-0.008,0.234-0.14,0.222-0.299,0.222
		c-0.289,0-0.58,0.021-0.871,0.013c-0.193-0.007-0.271,0.051-0.258,0.254c0.021,0.371-0.113,0.838,0.067,1.084
		c0.172,0.236,0.668,0.061,1.021,0.088c0.121,0.011,0.258-0.031,0.252,0.174c-0.004,0.168-0.086,0.189-0.23,0.211
		c-0.367,0.053-0.871-0.172-1.069,0.148c-0.169,0.27-0.039,0.726-0.035,1.098c0,0.248,0.065,0.48-0.354,0.459
		c-0.332-0.018-0.416-0.105-0.399-0.422C158.668,53.394,158.648,52.869,158.648,52.342z"/>
	<path fill="#090909" d="M192.523,52.166c0,0.443,0.026,0.889-0.01,1.328c-0.029,0.367,0.108,0.45,0.438,0.416
		c0.26-0.027,0.523-0.006,0.787-0.004c0.096,0,0.207-0.017,0.188,0.137c-0.016,0.115,0.031,0.277-0.159,0.279
		c-0.609,0.004-1.22,0-1.826,0.002c-0.164,0-0.164-0.105-0.164-0.223c0.002-1.162,0.002-2.324,0-3.486
		c0-0.365,0.274-0.175,0.428-0.201c0.146-0.024,0.334-0.07,0.324,0.217C192.51,51.143,192.523,51.656,192.523,52.166z"/>
	<path fill="#090909" d="M162.141,52.408c0,0.553-0.021,1.107,0.006,1.66c0.018,0.34-0.199,0.256-0.375,0.256
		c-0.174,0-0.385,0.082-0.381-0.256c0.018-1.134,0.016-2.27,0-3.402c-0.004-0.379,0.252-0.233,0.426-0.254
		c0.182-0.022,0.344-0.037,0.332,0.254C162.125,51.246,162.141,51.828,162.141,52.408z"/>
	<path fill="#090909" d="M143.83,50.212c-0.119,0.423-0.195,0.863-0.371,1.258c-0.078,0.172-0.293-0.066-0.451-0.1
		c-0.106-0.022-0.202-0.072-0.11-0.224c0.207-0.339,0.397-0.687,0.6-1.03c0.045-0.078,0.099-0.119,0.197-0.072
		C143.772,50.083,143.854,50.099,143.83,50.212z"/>
	<path fill="#090909" d="M199.522,50.02c0.647,0.231,0.647,0.231,0.326,0.784c-0.109,0.189-0.222,0.379-0.33,0.57
		c-0.062,0.107-0.099,0.213-0.273,0.14c-0.168-0.071-0.098-0.181-0.072-0.271C199.281,50.833,199.402,50.428,199.522,50.02z"/>
	<path fill="#090909" d="M142.295,51.535c-0.164-0.074-0.367-0.108-0.477-0.229c-0.117-0.127,0.074-0.257,0.139-0.377
		c0.14-0.267,0.299-0.524,0.449-0.785c0.051-0.086,0.098-0.153,0.225-0.095c0.088,0.043,0.142,0.078,0.113,0.179
		c-0.113,0.409-0.229,0.817-0.34,1.228C142.389,51.51,142.369,51.557,142.295,51.535z"/>
	<path fill="#090909" d="M198.287,51.553c-0.121-0.048-0.266-0.058-0.209-0.243c0.111-0.381,0.23-0.762,0.322-1.148
		c0.043-0.186,0.154-0.139,0.229-0.078c0.127,0.102,0.465,0.058,0.371,0.297c-0.158,0.391-0.412,0.742-0.629,1.107
		C198.354,51.518,198.311,51.535,198.287,51.553z"/>
	<g>
		<path fill="#249A96" d="M30.231,29.287c-0.797-0.225-1.604-0.389-2.43-0.46c-1.936-0.165-3.803,0.11-5.592,0.872
			c-2.211,0.941-3.956,2.47-5.448,4.324c-1.363,1.695-2.07,3.656-2.352,5.779c-0.459,3.472,0.583,6.514,2.735,9.219
			c0.427,0.536,0.888,1.042,1.378,1.521c0.383,0.373,0.843,0.645,1.292,0.928c1.137,0.718,2.323,1.335,3.634,1.678
			c0.745,0.193,1.497,0.285,2.258,0.101c0.688-0.168,1.238-0.541,1.625-1.142c0.17-0.264,0.36-0.511,0.567-0.745
			c0.452-0.513,0.992-0.844,1.685-0.955c0.821-0.132,1.645-0.295,2.418-0.602c0.616-0.243,1.24-0.242,1.875-0.24
			c0.117,0.001,0.241,0.001,0.302,0.136c0.063,0.138,0.009,0.258-0.077,0.359c-0.182,0.212-0.388,0.397-0.674,0.46
			c-0.624,0.136-1.235,0.313-1.817,0.581c-0.139,0.064-0.277,0.131-0.417,0.192c-0.103,0.045-0.094,0.09-0.008,0.141
			c0.223,0.134,0.47,0.191,0.725,0.215c0.404,0.037,0.805,0.001,1.189-0.126c0.983-0.322,1.917-0.738,2.705-1.429
			c0.308-0.271,0.577-0.572,0.801-0.917c0.322-0.496,0.659-0.981,1.09-1.39c0.108-0.103,0.222-0.195,0.359-0.255
			c0.271-0.118,0.538,0.05,0.554,0.345c0.01,0.189-0.051,0.361-0.136,0.525c-0.594,1.146-1.297,2.222-2.141,3.199
			c-1.292,1.496-2.915,2.513-4.716,3.267c-1.354,0.568-2.765,0.925-4.227,1.052c-0.658,0.058-1.321-0.001-1.98-0.062
			c-1.31-0.12-2.608-0.321-3.821-0.847c-3.386-1.469-5.96-3.799-7.474-7.209c-0.57-1.286-0.87-2.656-1.091-4.039
			c-0.113-0.706-0.247-1.41-0.204-2.128c0.105-1.791,0.52-3.511,1.252-5.149c1.337-2.989,3.497-5.194,6.415-6.657
			c0.724-0.363,1.515-0.56,2.3-0.757c1.474-0.369,2.969-0.556,4.49-0.469c0.977,0.055,1.932,0.233,2.85,0.582
			c0.039,0.015,0.076,0.034,0.113,0.05C30.236,29.252,30.233,29.27,30.231,29.287z"/>
		<path fill="#434343" d="M25.778,44.46c0.117,0.031,0.076-0.073,0.082-0.111c0.083-0.506,0.16-1.014,0.237-1.521
			c0.554-3.609,1.504-7.1,3.186-10.358c1.04-2.013,2.34-3.84,4.074-5.327c0.578-0.497,1.188-0.953,1.854-1.328
			c0.012,0.012,0.024,0.024,0.036,0.036c-2.363,1.721-4.001,4.011-5.213,6.635c-0.996,2.157-1.604,4.431-1.989,6.77
			c-0.305,1.858-0.391,3.73-0.429,5.608c-0.022,1.109-0.084,2.218-0.355,3.302c-0.108,0.435-0.268,0.846-0.564,1.188
			c-0.324,0.374-0.715,0.446-1.143,0.222c-0.229-0.121-0.332-0.328-0.382-0.566c-0.11-0.508-0.039-1.012,0.061-1.511
			c0.184-0.925,0.416-1.841,0.569-2.772c0.014-0.089,0.062-0.183-0.016-0.268L25.778,44.46z"/>
		<path fill="#1D3442" d="M30.696,31.972c0.214-0.337,0.424-0.664,0.627-0.996c0.055-0.091,0.118-0.07,0.195-0.051
			c0.98,0.258,1.886,0.682,2.722,1.248c2.175,1.479,3.415,3.556,3.819,6.125c0.432,2.751-0.43,5.136-2.204,7.223
			c-0.631,0.743-1.39,1.345-2.218,1.855c-0.048,0.03-0.091,0.078-0.176,0.05c0.428-0.34,0.821-0.705,1.19-1.098
			c1.039-1.107,1.855-2.352,2.295-3.818c0.551-1.835,0.363-3.617-0.409-5.351c-0.518-1.166-1.229-2.208-2.088-3.142
			c-0.592-0.644-1.36-1.05-2.143-1.417c-0.481-0.227-0.977-0.414-1.483-0.578C30.785,32.011,30.749,31.994,30.696,31.972z"/>
		<path fill="#203644" d="M27.478,47.645c1.043,0.181,2.07,0.268,3.099,0.069c1.03-0.198,1.937-0.681,2.819-1.248
			c-0.038,0.046-0.075,0.091-0.113,0.136c-1.143,1.337-2.603,1.948-4.349,1.902c-0.254-0.007-0.508-0.013-0.76-0.036
			c-0.119-0.011-0.137,0.023-0.128,0.132c0.028,0.368,0.007,0.733-0.117,1.083c-0.264,0.74-0.824,1.113-1.576,1.221
			c-0.924,0.131-1.907-0.646-2.027-1.602c-0.068-0.542-0.007-1.07,0.275-1.556c0.066-0.112,0.092-0.206-0.075-0.276
			c-1.507-0.629-3.067-0.969-4.709-0.849c-0.144,0.011-0.288,0.027-0.434,0.025c0.417-0.206,0.865-0.283,1.322-0.305
			c1.27-0.061,2.503,0.161,3.727,0.471c0.022,0.006,0.044,0.013,0.068,0.019c0.486,0.126,0.627,0.392,0.447,0.868
			c-0.065,0.17-0.147,0.334-0.223,0.5c-0.433,0.954,0.115,2.139,1.09,2.357c0.879,0.197,1.761-0.426,1.912-1.349
			C27.815,48.67,27.698,48.165,27.478,47.645z"/>
		<path fill="#279B97" d="M20.375,37.415c0.449-2,1.568-3.568,3.129-4.851c1.745-1.432,3.757-2.031,6.043-1.943
			c-0.146,0.139-0.26,0.244-0.371,0.354c-0.25,0.242-0.508,0.477-0.707,0.766c-0.035,0.052-0.071,0.063-0.132,0.059
			c-1.508-0.134-2.883,0.279-4.171,1.035c-0.942,0.551-1.756,1.26-2.443,2.102c-0.426,0.522-0.717,1.137-1.013,1.74
			C20.592,36.918,20.487,37.167,20.375,37.415z"/>
		<path fill="#203644" d="M25.248,43.681c-0.83-1.407-1.293-2.917-1.048-4.55c0.192-1.284,0.646-2.497,1.349-3.607
			c0.325-0.515,0.57-1.071,0.747-1.655c0.083-0.275-0.032-0.537-0.042-0.807c0.062-0.015,0.075,0.043,0.099,0.076
			c0.393,0.52,0.449,1.085,0.227,1.689c-0.124,0.337-0.352,0.613-0.521,0.923c-0.469,0.861-0.877,1.748-1.219,2.669
			c-0.443,1.195-0.472,2.395-0.151,3.618c0.149,0.567,0.354,1.112,0.611,1.638C25.282,43.677,25.265,43.679,25.248,43.681z"/>
		<path fill="#279B97" d="M31.032,38.668c-1.638,1.743-2.762,3.696-2.667,6.179c-0.126-0.29-0.181-0.599-0.209-0.911
			c-0.131-1.469,0.387-2.719,1.299-3.834c0.435-0.532,0.942-0.99,1.487-1.408C30.964,38.677,30.983,38.65,31.032,38.668z"/>
		<path fill="#279B97" d="M34.957,50.011c0.612-0.588,1.164-1.212,1.598-1.936c0.149-0.247,0.373-0.423,0.616-0.573
			c0.065-0.04,0.135-0.073,0.216-0.066c0.029,0.003,0.062,0.002,0.076,0.034c0.015,0.037-0.02,0.049-0.042,0.065
			c-0.559,0.431-0.973,0.992-1.383,1.554c-0.266,0.364-0.602,0.645-0.96,0.905C35.046,50.017,35.013,50.028,34.957,50.011z"/>
		<path fill="#279B97" d="M35.25,49.272c0.145-0.246,0.29-0.492,0.437-0.735c0.083-0.137,0.18-0.263,0.315-0.352
			c0.085-0.057,0.175-0.098,0.301-0.024C35.874,48.468,35.684,48.98,35.25,49.272z"/>
		<path fill="#279B97" d="M27.227,49.462c-0.015,0.112-0.07,0.192-0.188,0.192s-0.183-0.079-0.183-0.192
			c0-0.106,0.065-0.178,0.174-0.183C27.152,49.274,27.207,49.351,27.227,49.462z"/>
		<path fill="#279B97" d="M25.888,50.313c-0.114-0.017-0.178-0.086-0.171-0.201c0.006-0.105,0.076-0.178,0.182-0.177
			c0.113,0.004,0.187,0.076,0.184,0.193C26.08,50.243,26.011,50.308,25.888,50.313z"/>
		<path fill="#279B97" d="M24.958,49.005c0.111,0.024,0.183,0.088,0.174,0.205c-0.006,0.105-0.071,0.176-0.181,0.175
			c-0.119-0.003-0.186-0.078-0.184-0.191C24.768,49.08,24.844,49.017,24.958,49.005z"/>
		<path fill="#203644" d="M24.89,48.339c0.075,0.01,0.12,0.053,0.119,0.129c-0.001,0.074-0.046,0.125-0.122,0.125
			c-0.075-0.001-0.119-0.053-0.119-0.127C24.768,48.39,24.815,48.348,24.89,48.339z"/>
		<path fill="#203644" d="M26.622,49.856c0.078,0.007,0.125,0.047,0.13,0.122c0.004,0.074-0.04,0.128-0.114,0.133
			c-0.074,0.004-0.123-0.041-0.127-0.118C26.508,49.915,26.553,49.875,26.622,49.856z"/>
		<path fill="#203644" d="M25.383,49.851c-0.016,0.077-0.055,0.13-0.128,0.126c-0.079-0.005-0.126-0.059-0.117-0.142
			c0.009-0.073,0.057-0.115,0.131-0.109C25.344,49.734,25.373,49.791,25.383,49.851z"/>
		<path fill="#203644" d="M27.407,48.92c-0.083-0.007-0.132-0.05-0.137-0.122c-0.005-0.073,0.038-0.128,0.114-0.133
			c0.076-0.005,0.123,0.041,0.128,0.117C27.518,48.862,27.466,48.898,27.407,48.92z"/>
		<path fill="#279B97" d="M30.231,29.287c0.002-0.017,0.005-0.034,0.008-0.052c0.187,0.05,0.358,0.132,0.52,0.24
			C30.583,29.414,30.407,29.35,30.231,29.287z"/>
		<path fill="#434343" d="M25.248,43.681c0.018-0.002,0.034-0.004,0.05-0.006c0.106,0.182,0.211,0.363,0.317,0.543
			C25.468,44.056,25.344,43.877,25.248,43.681z"/>
		<path fill="#279B97" d="M35.244,25.851c-0.012-0.012-0.024-0.024-0.036-0.036c0.138-0.1,0.289-0.173,0.451-0.225
			C35.521,25.676,35.383,25.764,35.244,25.851z"/>
		<path fill="#434343" d="M25.781,44.458c-0.013-0.01-0.025-0.018-0.038-0.026c0.011,0.009,0.023,0.019,0.034,0.028L25.781,44.458z"
			/>
		<path fill="#434343" d="M25.678,44.325c-0.004,0-0.008,0-0.012-0.002c-0.004-0.003-0.011-0.007-0.012-0.011
			c-0.001-0.018,0.004-0.018,0.015,0C25.673,44.316,25.675,44.321,25.678,44.325z"/>
		<path fill="#279B97" d="M31.088,38.615c-0.006,0.008-0.013,0.017-0.018,0.023c-0.003-0.006-0.005-0.012-0.009-0.019
			c0.01-0.001,0.021-0.001,0.031-0.002L31.088,38.615z"/>
		<path fill="#279B97" d="M31.124,38.581c-0.012,0.011-0.024,0.022-0.037,0.034l0.003,0.002c-0.005-0.029,0.012-0.035,0.036-0.034
			L31.124,38.581z"/>
		<path fill="#279B97" d="M31.127,38.583c0.004-0.006,0.008-0.013,0.011-0.018c0,0.001,0,0.006-0.001,0.008
			c-0.003,0.003-0.009,0.005-0.012,0.008L31.127,38.583z"/>
	</g>
	<path fill="#239995" d="M206.477,46.248c-0.902-0.842-1.603-1.699-2.09-2.707c-1.08-2.228-1.343-4.535-0.515-6.889
		c1.221-3.476,3.691-5.517,7.334-6.055c3.812-0.563,7.59,1.495,9.228,4.986c1.034,2.211,1.223,4.506,0.377,6.816
		c-1.252,3.412-3.72,5.369-7.302,5.942c-0.317,0.051-0.633,0.067-0.952,0.067c-56.029,0-112.062,0-168.091,0
		c-0.125,0-0.251,0.008-0.375-0.002c-0.506-0.048-0.588-0.246-0.578-1.377c0.005-0.535,0.163-0.746,0.594-0.783
		c0.055-0.004,0.109,0,0.166,0c0.125,0,0.25,0,0.375,0c53.727,0,107.454,0,161.183,0C206.006,46.248,206.182,46.248,206.477,46.248z
		 M207.977,46.748c-0.164,0-0.328,0-0.492,0c-54.297,0-108.592,0-162.888,0c-0.125,0-0.249,0-0.375,0
		c-0.068,0.002-0.179-0.004-0.182,0.063c-0.019,0.331-0.067,0.673-0.002,0.991c0.05,0.237,0.336,0.104,0.509,0.104
		c55.377,0.006,110.757,0.006,166.134,0.006c0.432,0,0.86-0.015,1.291-0.006c2.772,0.045,5.082-0.957,6.887-3.072
		c0.5-0.588,0.918-1.235,1.205-1.969c-5.152,0-10.263,0-15.414,0C205.393,44.501,206.502,45.755,207.977,46.748z M212.381,36.592
		c-2.522,0-5.045,0.005-7.567-0.007c-0.306-0.002-0.424,0.093-0.513,0.383c-0.514,1.695-0.495,3.38,0.021,5.068
		c0.084,0.272,0.197,0.393,0.516,0.392c5.019-0.013,10.037-0.013,15.056,0c0.319,0,0.428-0.126,0.51-0.396
		c0.52-1.688,0.533-3.373,0.021-5.068c-0.088-0.293-0.213-0.381-0.514-0.379C217.4,36.597,214.891,36.592,212.381,36.592z
		 M220.092,36.164c-1.125-2.89-4.521-5.592-8.854-5.074c-2.764,0.332-6.275,2.998-6.56,5.074
		C209.805,36.164,214.932,36.164,220.092,36.164z"/>
	<path d="M207.977,46.748c-1.476-0.992-2.584-2.246-3.328-3.885c5.151,0,10.262,0,15.414,0c-0.287,0.734-0.705,1.383-1.205,1.969
		c-1.806,2.117-4.113,3.119-6.887,3.072c-0.431-0.007-0.859,0.008-1.291,0.008c-55.378,0-110.757,0-166.134-0.006
		c-0.173,0-0.458,0.131-0.509-0.105c-0.065-0.317-0.016-0.66,0.002-0.991c0.003-0.067,0.113-0.062,0.182-0.062
		c0.125-0.002,0.25-0.002,0.375-0.002c54.296,0,108.591,0,162.888,0C207.648,46.748,207.813,46.748,207.977,46.748z"/>
	<path fill="#010101" d="M212.381,36.592c2.511,0,5.021,0.005,7.529-0.007c0.301-0.002,0.426,0.086,0.514,0.379
		c0.513,1.695,0.498,3.38-0.021,5.068c-0.082,0.269-0.189,0.396-0.51,0.396c-5.019-0.013-10.037-0.013-15.056,0
		c-0.317,0.001-0.432-0.119-0.516-0.392c-0.518-1.688-0.535-3.373-0.021-5.068c0.089-0.291,0.207-0.385,0.513-0.383
		C207.336,36.597,209.857,36.592,212.381,36.592z M208.938,39.876c0.739-0.116,0.994-0.469,0.944-1.244
		c-0.034-0.563-0.401-0.867-1.047-0.868c-0.832,0-1.664,0.026-2.496-0.011c-0.391-0.019-0.45,0.119-0.438,0.461
		c0.024,0.721,0.031,1.443-0.002,2.164c-0.017,0.377,0.09,0.471,0.467,0.477c0.387,0.005,0.492-0.119,0.438-0.468
		c-0.017-0.095,0.008-0.195-0.005-0.291c-0.022-0.192,0.043-0.249,0.248-0.267c0.498-0.041,0.933,0.028,1.228,0.48
		c0.373,0.572,0.916,0.604,1.541,0.49C209.523,40.492,209.25,40.207,208.938,39.876z M210.156,39.335
		c0,0.346,0.023,0.695-0.008,1.037c-0.033,0.365,0.065,0.486,0.459,0.481c0.367-0.004,0.5-0.095,0.442-0.46
		c-0.022-0.162,0.009-0.333-0.006-0.498c-0.014-0.18,0.054-0.238,0.234-0.236c0.637,0.01,1.272,0.01,1.91,0
		c0.192-0.004,0.235,0.074,0.223,0.244c-0.01,0.125-0.002,0.25-0.002,0.375c0,0.568,0.002,0.551,0.568,0.567
		c0.28,0.008,0.344-0.084,0.338-0.349c-0.017-0.762-0.025-1.523,0.002-2.285c0.014-0.356-0.066-0.467-0.445-0.465
		c-0.381,0.004-0.524,0.105-0.465,0.482c0.018,0.122-0.01,0.25,0.004,0.373c0.033,0.258-0.043,0.365-0.33,0.352
		c-0.496-0.025-0.996-0.008-1.494-0.008c-0.541,0-0.541,0-0.541-0.55c0-0.659,0-0.646-0.627-0.64
		c-0.231,0.003-0.274,0.088-0.268,0.291C210.164,38.476,210.156,38.906,210.156,39.335z M216.721,37.765
		c-0.609,0-1.22,0.016-1.828-0.006c-0.313-0.012-0.246,0.188-0.238,0.354c0.01,0.163-0.113,0.411,0.24,0.391
		c0.358-0.021,0.721,0.015,1.08-0.01c0.271-0.02,0.323,0.086,0.313,0.33c-0.018,0.471-0.006,0.942-0.006,1.414
		c0,0.621,0,0.606,0.611,0.608c0.25,0.001,0.295-0.086,0.291-0.31c-0.015-0.582,0.008-1.164-0.011-1.746
		c-0.008-0.244,0.076-0.308,0.306-0.295c0.346,0.017,0.694-0.018,1.039,0.01c0.311,0.025,0.293-0.15,0.287-0.357
		c-0.005-0.207,0.049-0.408-0.3-0.391C217.914,37.787,217.316,37.765,216.721,37.765z"/>
	<path d="M220.092,36.164c-5.159,0-10.286,0-15.414,0c0.283-2.076,3.796-4.742,6.56-5.074
		C215.57,30.572,218.967,33.274,220.092,36.164z"/>
	<path fill="#EDEBEB" d="M208.938,39.876c0.313,0.33,0.586,0.615,0.879,0.924c-0.625,0.113-1.168,0.082-1.541-0.49
		c-0.295-0.453-0.729-0.521-1.228-0.48c-0.205,0.019-0.271,0.074-0.248,0.267c0.013,0.096-0.012,0.196,0.005,0.291
		c0.055,0.349-0.052,0.474-0.438,0.468c-0.377-0.005-0.482-0.1-0.467-0.477c0.033-0.721,0.026-1.442,0.002-2.164
		c-0.014-0.344,0.047-0.479,0.438-0.461c0.832,0.037,1.664,0.011,2.496,0.011c0.646,0.001,1.013,0.305,1.047,0.868
		C209.932,39.408,209.677,39.76,208.938,39.876z M207.854,38.5c-0.275,0-0.554,0.013-0.828-0.004
		c-0.242-0.017-0.234,0.127-0.224,0.287c0.013,0.149-0.067,0.342,0.22,0.336c0.553-0.015,1.104-0.008,1.658-0.002
		c0.202,0.002,0.313-0.068,0.313-0.287c-0.002-0.209-0.059-0.345-0.309-0.332C208.408,38.509,208.131,38.498,207.854,38.5z"/>
	<path fill="#EDEBEB" d="M210.156,39.335c0-0.43,0.008-0.859-0.004-1.289c-0.008-0.202,0.035-0.287,0.268-0.289
		c0.627-0.008,0.627-0.021,0.627,0.639c0,0.551,0,0.551,0.541,0.551c0.498,0,0.998-0.02,1.494,0.006
		c0.287,0.016,0.363-0.092,0.33-0.351c-0.014-0.123,0.014-0.251-0.004-0.373c-0.061-0.377,0.084-0.479,0.465-0.481
		c0.379-0.002,0.459,0.107,0.445,0.465c-0.027,0.76-0.019,1.522-0.002,2.283c0.006,0.265-0.058,0.356-0.338,0.35
		c-0.566-0.016-0.568,0.001-0.568-0.568c0-0.125-0.008-0.25,0.002-0.373c0.014-0.17-0.029-0.248-0.223-0.246
		c-0.638,0.012-1.273,0.01-1.91,0.002c-0.182-0.004-0.248,0.055-0.234,0.235c0.015,0.165-0.018,0.335,0.006,0.498
		c0.058,0.364-0.075,0.456-0.442,0.46c-0.394,0.005-0.492-0.117-0.459-0.48C210.18,40.031,210.156,39.682,210.156,39.335z"/>
	<path fill="#EDEBEB" d="M216.721,37.765c0.596,0,1.192,0.021,1.786-0.008c0.349-0.018,0.295,0.184,0.3,0.391
		c0.006,0.207,0.022,0.383-0.287,0.357c-0.345-0.027-0.693,0.007-1.039-0.01c-0.229-0.013-0.313,0.051-0.306,0.295
		c0.019,0.582-0.004,1.164,0.011,1.746c0.004,0.224-0.041,0.311-0.291,0.31c-0.611-0.002-0.611,0.012-0.611-0.608
		c0-0.472-0.012-0.943,0.006-1.414c0.01-0.244-0.043-0.349-0.313-0.33c-0.359,0.024-0.722-0.011-1.08,0.01
		c-0.354,0.021-0.23-0.228-0.24-0.391c-0.008-0.166-0.074-0.365,0.238-0.354C215.502,37.779,216.111,37.765,216.721,37.765z"/>
	<path fill="#010101" d="M207.854,38.5c0.276,0,0.555,0.01,0.83-0.004c0.25-0.012,0.307,0.125,0.309,0.334
		c0.002,0.217-0.109,0.287-0.313,0.285c-0.554-0.005-1.105-0.012-1.658,0.002c-0.287,0.008-0.207-0.186-0.22-0.336
		c-0.012-0.158-0.02-0.302,0.224-0.287C207.301,38.512,207.578,38.5,207.854,38.5z"/>
</g>
</svg>
